<?xml version="1.0" encoding="UTF-8" standalone="no"?>
<!-- Created with Fritzing (http://www.fritzing.org/) -->

<svg
   xmlns:dc="http://purl.org/dc/elements/1.1/"
   xmlns:cc="http://creativecommons.org/ns#"
   xmlns:rdf="http://www.w3.org/1999/02/22-rdf-syntax-ns#"
   xmlns:svg="http://www.w3.org/2000/svg"
   xmlns="http://www.w3.org/2000/svg"
   xmlns:sodipodi="http://sodipodi.sourceforge.net/DTD/sodipodi-0.dtd"
   xmlns:inkscape="http://www.inkscape.org/namespaces/inkscape"
   version="1.2"
   x="0in"
   y="0in"
   width="2.5036in"
   height="1.34725in"
   viewBox="0 0 180.259 97.002"
   id="svg442"
   sodipodi:docname="transformador.svg"
   inkscape:version="0.92.2 2405546, 2018-03-11"
   inkscape:export-filename="/home/ronal/git/GNU-Pytronic/other Sources/icons/transformador.svg.png"
   inkscape:export-xdpi="64"
   inkscape:export-ydpi="64">
  <metadata
     id="metadata448">
    <rdf:RDF>
      <cc:Work
         rdf:about="">
        <dc:format>image/svg+xml</dc:format>
        <dc:type
           rdf:resource="http://purl.org/dc/dcmitype/StillImage" />
        <dc:title />
      </cc:Work>
    </rdf:RDF>
  </metadata>
  <defs
     id="defs446" />
  <sodipodi:namedview
     pagecolor="#ffffff"
     bordercolor="#666666"
     borderopacity="1"
     objecttolerance="10"
     gridtolerance="10"
     guidetolerance="10"
     inkscape:pageopacity="0"
     inkscape:pageshadow="2"
     inkscape:window-width="1366"
     inkscape:window-height="715"
     id="namedview444"
     showgrid="false"
     inkscape:zoom="4"
     inkscape:cx="30.564851"
     inkscape:cy="86.334467"
     inkscape:window-x="0"
     inkscape:window-y="32"
     inkscape:window-maximized="1"
     inkscape:current-layer="g68"
     showguides="false" />
  <g
     partID="113030"
     id="g366"
     transform="translate(21.951939,-15.408573)">
    <g
       transform="translate(0,2.08372)"
       id="g364">
      <g
         id="breadboard">
        <g
           id="g353">
          <g
             id="icon"
             inkscape:export-xdpi="64"
             inkscape:export-ydpi="64">
            <g
               id="g68"
               inkscape:transform-center-x="-18.507435"
               inkscape:transform-center-y="-8.9552106">
              <rect
                 style="stroke-width:0.99999994"
                 width="9.9510002"
                 y="71.777"
                 height="4.2750001"
                 x="1.7763568e-15"
                 id="rect32-3"
                 inkscape:export-xdpi="64"
                 inkscape:export-ydpi="64" />
              <rect
                 style="stroke-width:0.99999994"
                 width="9.9510002"
                 y="71.777"
                 height="4.2750001"
                 x="63.750004"
                 id="rect32-5"
                 inkscape:transform-center-x="-7.1641685"
                 inkscape:transform-center-y="-6.2686475"
                 inkscape:export-xdpi="64"
                 inkscape:export-ydpi="64" />
              <polygon
                 transform="matrix(1,0,0,-1,4.0283203e-6,119.329)"
                 points="64.917,71.777 64.917,47.552 73.701,43.277 73.701,71.777 "
                 id="polygon34-6"
                 style="fill:#b3b3b3"
                 inkscape:export-xdpi="64"
                 inkscape:export-ydpi="64" />
              <polygon
                 transform="matrix(1,0,0,-1,0.13799982,119.329)"
                 points="0.888,43.277 9.951,47.552 28.375,47.552 43.493,47.552 63.75,47.552 72.813,43.277 43.493,43.277 28.375,43.277 "
                 id="polygon38-3"
                 style="fill:#b3b3b3"
                 inkscape:export-xdpi="64"
                 inkscape:export-ydpi="64" />
              <g
                 id="g18"
                 inkscape:export-xdpi="64"
                 inkscape:export-ydpi="64">
                <path
                   d="m 13.951,28 c -2.2,0 -4,1.8 -4,4 v 46.922 c 0,2.2 1.8,4 4,4 h 2.61 c 2.2,0 4,-0.841 4,-1.867 0,-1.027 0.848,-1.869 1.884,-1.869 1.037,0 1.885,0.842 1.885,1.869 0,1.026 1.75,1.867 3.888,1.867 2.138,0 3.888,-0.841 3.888,-1.867 0,-1.027 0.848,-1.869 1.885,-1.869 1.036,0 1.884,0.842 1.884,1.869 0,1.026 1.744,1.867 3.876,1.867 2.132,0 3.876,-0.841 3.876,-1.867 0,-1.027 0.849,-1.869 1.884,-1.869 1.037,0 1.885,0.842 1.885,1.869 0,1.026 1.802,1.867 4,1.867 h 8.355 c 2.2,0 4,-1.8 4,-4 V 32 c 0,-2.2 -1.8,-4 -4,-4 z"
                   id="path16"
                   inkscape:connector-curvature="0"
                   style="fill:#8f6d44" />
              </g>
              <g
                 id="g22"
                 style="fill:#d7d6ba;fill-opacity:1"
                 inkscape:export-xdpi="64"
                 inkscape:export-ydpi="64">
                <path
                   d="m 13.951,26.5 c -2.2,0 -4,1.8 -4,4 v 46.922 c 0,2.2 1.8,4 4,4 h 2.61 c 2.2,0 4,-0.841 4,-1.867 0,-1.027 0.848,-1.869 1.884,-1.869 1.037,0 1.885,0.842 1.885,1.869 0,1.026 1.75,1.867 3.888,1.867 2.138,0 3.888,-0.841 3.888,-1.867 0,-1.027 0.848,-1.869 1.885,-1.869 1.036,0 1.884,0.842 1.884,1.869 0,1.026 1.744,1.867 3.876,1.867 2.132,0 3.876,-0.841 3.876,-1.867 0,-1.027 0.849,-1.869 1.884,-1.869 1.037,0 1.885,0.842 1.885,1.869 0,1.026 1.802,1.867 4,1.867 h 8.355 c 2.2,0 4,-1.8 4,-4 V 30.5 c 0,-2.2 -1.8,-4 -4,-4 z"
                   id="path20"
                   inkscape:connector-curvature="0"
                   style="fill:#d7d6ba;fill-opacity:1" />
              </g>
              <path
                 d="m 62.84,64.686 c 0,7.149 -5.85,13 -13,13 H 23.862 c -7.15,0 -13,-5.851 -13,-13 V 37.622 c 0,-7.15 5.85,-13 13,-13 H 49.84 c 7.15,0 13,5.85 13,13 z"
                 id="path24"
                 inkscape:connector-curvature="0"
                 style="fill:#191919"
                 inkscape:export-xdpi="64"
                 inkscape:export-ydpi="64" />
              <path
                 d="m 10.862,64.686 c 0,7.149 5.85,13 13,13 H 49.84 c 7.15,0 13,-5.851 13,-13 v -1.125 c 0,7.149 -5.85,13 -13,13 H 23.862 c -7.15,0 -13,-5.851 -13,-13 z"
                 id="path26"
                 inkscape:connector-curvature="0"
                 style="fill:#110f0d"
                 inkscape:export-xdpi="64"
                 inkscape:export-ydpi="64" />
              <path
                 d="m 63.75,55.561 c 0,4.399 -3.601,8 -8,8 H 17.951 c -4.4,0 -8,-3.601 -8,-8 V 16.637 c 0,-4.399 3.6,-8 8,-8 H 55.75 c 4.399,0 8,3.6 8,8 z"
                 id="path28"
                 inkscape:connector-curvature="0"
                 style="fill:#d7d6ba;fill-opacity:1"
                 inkscape:export-xdpi="64"
                 inkscape:export-ydpi="64" />
              <path
                 d="m 9.951,55.561 c 0,4.399 3.6,8 8,8 H 55.75 c 4.399,0 8,-3.601 8,-8 V 53.96 c 0,4.399 -3.601,8 -8,8 H 17.951 c -4.4,0 -8,-3.601 -8,-8"
                 id="path30"
                 inkscape:connector-curvature="0"
                 style="fill:#b7947a"
                 inkscape:export-xdpi="64"
                 inkscape:export-ydpi="64" />
              <rect
                 width="9.9510002"
                 y="43.277"
                 height="4.2750001"
                 x="63.75"
                 id="rect32"
                 inkscape:export-xdpi="64"
                 inkscape:export-ydpi="64" />
              <polygon
                 points="64.917,47.552 73.701,43.277 73.701,43.277 73.701,71.777 64.917,71.777 "
                 id="polygon34"
                 style="fill:#b3b3b3"
                 inkscape:export-xdpi="64"
                 inkscape:export-ydpi="64" />
              <rect
                 width="9.9510002"
                 y="43.277"
                 height="4.2750001"
                 id="rect36"
                 x="0"
                 inkscape:export-xdpi="64"
                 inkscape:export-ydpi="64" />
              <polygon
                 points="0.888,43.277 9.951,47.552 28.375,47.552 43.493,47.552 63.75,47.552 72.813,43.277 43.493,43.277 28.375,43.277 "
                 id="polygon38"
                 style="fill:#b3b3b3"
                 inkscape:export-xdpi="64"
                 inkscape:export-ydpi="64" />
              <polygon
                 points="8.784,47.552 0,43.277 0,43.277 0,71.777 8.784,71.777 "
                 id="polygon40"
                 style="fill:#b3b3b3"
                 inkscape:export-xdpi="64"
                 inkscape:export-ydpi="64" />
              <path
                 d="M 72.701,17.36 H 1 c -0.55,0 -1,0.45 -1,1 v 8.14 16.86 1 c 0,-0.55 0.45,-1 1,-1 h 71.701 c 0.55,0 1,0.45 1,1 v -1 -16.86 -8.14 c 0,-0.55 -0.45,-1 -1,-1 z"
                 id="path42"
                 inkscape:connector-curvature="0"
                 style="fill:#b3b3b3"
                 inkscape:export-xdpi="64"
                 inkscape:export-ydpi="64" />
              <rect
                 width="73.694695"
                 y="17.485001"
                 height="25.75"
                 x="0.0053457259"
                 id="rect44"
                 style="fill:#4d4d4d;stroke-width:1.28925586"
                 inkscape:export-xdpi="64"
                 inkscape:export-ydpi="64" />
              <rect
                 width="56.132999"
                 y="47.551998"
                 height="0.55699998"
                 x="8.7840004"
                 id="rect62"
                 style="fill:#353334"
                 inkscape:export-xdpi="64"
                 inkscape:export-ydpi="64" />
              <rect
                 width="0.75"
                 y="48.109001"
                 height="23.667999"
                 x="64.167"
                 id="rect64"
                 style="fill:#353334"
                 inkscape:export-xdpi="64"
                 inkscape:export-ydpi="64" />
              <rect
                 width="0.75"
                 y="48.109001"
                 height="23.667999"
                 x="8.7840004"
                 id="rect66"
                 style="fill:#353334"
                 inkscape:export-xdpi="64"
                 inkscape:export-ydpi="64" />
              <polygon
                 transform="matrix(1,0,0,-1,0,119.329)"
                 points="8.784,71.777 8.784,47.552 0,43.277 0,71.777 "
                 id="polygon40-7"
                 style="fill:#b3b3b3"
                 inkscape:export-xdpi="64"
                 inkscape:export-ydpi="64" />
            </g>
          </g>
        </g>
        <path
           d="m 9.951,17.36 c 0,-4.4 3.6,-8 8,-8 H 55.75 c 4.399,0 8,3.6 8,8 v -0.723 c 0,-4.4 -3.601,-8 -8,-8 H 17.951 c -4.4,0 -8,3.6 -8,8 z"
           id="path355"
           inkscape:connector-curvature="0"
           style="fill:#d9b89f"
           inkscape:export-xdpi="64"
           inkscape:export-ydpi="64" />
        <g
           id="g359"
           inkscape:export-xdpi="64"
           inkscape:export-ydpi="64">
          <path
             d="M 55.75,63.553 H 17.951 c -3.073,0 -5.75,-1.758 -7.089,-4.314 v 0.986 c 1.339,2.557 4.017,4.314 7.089,4.314 l 37.799,0 c 3.073,0 5.751,-1.76 7.09,-4.316 v -0.986 c -1.339,2.557 -4.017,4.316 -7.09,4.316 z"
             id="path357"
             inkscape:connector-curvature="0"
             style="fill:#110f0d" />
        </g>
        <circle
           cy="52.849998"
           cx="58.578999"
           r="2.4719999"
           id="circle361"
           style="fill:#ba1919"
           inkscape:export-xdpi="64"
           inkscape:export-ydpi="64" />
      </g>
    </g>
  </g>
</svg>
