<?xml version="1.0" encoding="UTF-8" standalone="no"?>
<!-- Generator: Adobe Illustrator 13.0.0, SVG Export Plug-In . SVG Version: 6.00 Build 14948)  -->

<svg
   xmlns:dc="http://purl.org/dc/elements/1.1/"
   xmlns:cc="http://creativecommons.org/ns#"
   xmlns:rdf="http://www.w3.org/1999/02/22-rdf-syntax-ns#"
   xmlns:svg="http://www.w3.org/2000/svg"
   xmlns="http://www.w3.org/2000/svg"
   xmlns:sodipodi="http://sodipodi.sourceforge.net/DTD/sodipodi-0.dtd"
   xmlns:inkscape="http://www.inkscape.org/namespaces/inkscape"
   version="1.1"
   id="Layer_1"
   x="0px"
   y="0px"
   width="32px"
   height="32px"
   viewBox="0 0 32 32"
   enable-background="new 0 0 32 32"
   xml:space="preserve"
   sodipodi:docname="ceramic_disk_capacitor_ochre_icon.svg"
   inkscape:version="0.92.2 5c3e80d, 2017-08-06"><metadata
     id="metadata28"><rdf:RDF><cc:Work
         rdf:about=""><dc:format>image/svg+xml</dc:format><dc:type
           rdf:resource="http://purl.org/dc/dcmitype/StillImage" /></cc:Work></rdf:RDF></metadata><defs
     id="defs26"><clipPath
       clipPathUnits="userSpaceOnUse"
       id="clipPath845"><rect
         style="fill:#d4aa00;fill-opacity:0.71223019;stroke-width:1.13389337"
         id="rect847"
         width="47.322033"
         height="28.067797"
         x="-5.5593219"
         y="0.9491533" /></clipPath><clipPath
       clipPathUnits="userSpaceOnUse"
       id="clipPath849"><rect
         style="fill:#d4aa00;fill-opacity:0.71223019;stroke-width:1.13389337"
         id="rect851"
         width="47.322033"
         height="28.067797"
         x="-5.5593219"
         y="0.9491533" /></clipPath><clipPath
       clipPathUnits="userSpaceOnUse"
       id="clipPath853"><rect
         style="fill:#d4aa00;fill-opacity:0.71223019;stroke-width:1.13389337"
         id="rect855"
         width="47.322033"
         height="28.067797"
         x="-5.5593219"
         y="0.9491533" /></clipPath><clipPath
       clipPathUnits="userSpaceOnUse"
       id="clipPath857"><rect
         style="fill:#d4aa00;fill-opacity:0.71223019;stroke-width:1.13389337"
         id="rect859"
         width="47.322033"
         height="28.067797"
         x="-5.5593219"
         y="0.9491533" /></clipPath><clipPath
       clipPathUnits="userSpaceOnUse"
       id="clipPath861"><rect
         style="fill:#d4aa00;fill-opacity:0.71223019;stroke-width:1.13389337"
         id="rect863"
         width="47.322033"
         height="28.067797"
         x="-5.5593219"
         y="0.9491533" /></clipPath><clipPath
       clipPathUnits="userSpaceOnUse"
       id="clipPath865"><rect
         style="fill:#d4aa00;fill-opacity:0.71223019;stroke-width:1.13389337"
         id="rect867"
         width="47.322033"
         height="28.067797"
         x="-5.5593219"
         y="0.9491533" /></clipPath><clipPath
       clipPathUnits="userSpaceOnUse"
       id="clipPath869"><rect
         style="fill:#d4aa00;fill-opacity:0.71223019;stroke-width:1.13389337"
         id="rect871"
         width="47.322033"
         height="28.067797"
         x="-5.5593219"
         y="0.9491533" /></clipPath><clipPath
       clipPathUnits="userSpaceOnUse"
       id="clipPath873"><rect
         style="fill:#d4aa00;fill-opacity:0.71223019;stroke-width:1.13389337"
         id="rect875"
         width="47.322033"
         height="28.067797"
         x="-5.5593219"
         y="0.9491533" /></clipPath></defs><sodipodi:namedview
     pagecolor="#ffffff"
     bordercolor="#666666"
     borderopacity="1"
     objecttolerance="10"
     gridtolerance="10"
     guidetolerance="10"
     inkscape:pageopacity="0"
     inkscape:pageshadow="2"
     inkscape:window-width="1920"
     inkscape:window-height="1015"
     id="namedview24"
     showgrid="false"
     inkscape:zoom="22.627417"
     inkscape:cx="5.2705933"
     inkscape:cy="13.982844"
     inkscape:window-x="0"
     inkscape:window-y="36"
     inkscape:window-maximized="1"
     inkscape:current-layer="Layer_1" /><g
     id="icon"
     transform="matrix(0.96798493,0,0,0.96798493,-0.14731593,-4.6633269)"
     inkscape:export-xdpi="418"
     inkscape:export-ydpi="418"><g
       id="g20"><path
         d="M 8.44,19.225 C 8.438,19.2271 8.438,19.2271 6.751,21.002978 5.732,22.049963 5.074,23.345527 4.805,24.82542 4.521,26.308472 4.504,27.976907 4.5,30.311029 v 21.06609 h 3 V 30.311029 H 7.499 C 7.495,28.006399 7.54,26.466468 7.742,25.460562 7.956,24.448337 8.203,23.966977 8.871,23.237037 10.56,21.459059 10.56,21.459059 10.56,21.459059 Z"
         id="path2"
         inkscape:connector-curvature="0"
         style="fill:#8c8c8c;stroke-width:1.02630627"
         clip-path="url(#clipPath873)"
         inkscape:export-xdpi="418.58658"
         inkscape:export-ydpi="418.58658"
         transform="matrix(1,0,0,0.7645939,0,4.5256822)" /><path
         d="m 27.498,29.749 v 0 C 27.495,27.534 27.478,25.95 27.193,24.542 26.923,23.139 26.265,21.907 25.246,20.912 23.56,19.224 23.56,19.224 23.56,19.224 l -2.121,2.123 c 0,0 0,0 1.687,1.687 0.669,0.694 0.916,1.151 1.13,2.11 0.202,0.957 0.247,2.42 0.243,4.605 H 24.505 24.5 v 20 h 3 v -20 z"
         id="path4"
         clip-path="url(#clipPath869)"
         inkscape:export-xdpi="418.58658"
         inkscape:export-ydpi="418.58658"
         inkscape:connector-curvature="0"
         transform="matrix(1,0,0,0.76461793,0,4.5249849)"
         style="fill:#8c8c8c" /><circle
         cx="16"
         cy="16.035"
         r="9.0349998"
         id="circle6"
         clip-path="url(#clipPath865)"
         inkscape:export-xdpi="418.58658"
         inkscape:export-ydpi="418.58658"
         style="fill:#cc7720" /><path
         d="m 7.25,18.223 c 0.135,0.489 -0.063,0.721 -0.281,1.062 -0.219,0.344 -0.512,0.545 -0.938,1.125 -0.344,0.469 -0.529,0.947 -0.688,1.5 -0.158,0.552 -0.03,0.938 -0.03,0.938 l 2.562,1.781 c 0,0 0.257,-0.104 0.48,-0.355 C 8.501,24.109 8.832,23.83 9,23.661 c 0.344,-0.345 0.562,-0.419 0.937,-0.419 0.393,0 0.619,0.005 0.994,0.273 0.423,0.303 2.049,-1.418 2.049,-1.418 L 9.376,19.66 7.772,17.702 c -0.001,0 -0.657,0.03 -0.522,0.521 z"
         id="path10"
         clip-path="url(#clipPath861)"
         inkscape:export-xdpi="418.58658"
         inkscape:export-ydpi="418.58658"
         inkscape:connector-curvature="0"
         style="fill:#cc7720" /><path
         d="m 24.75,18.223 c -0.135,0.489 0.062,0.721 0.279,1.062 0.221,0.344 0.514,0.545 0.938,1.125 0.345,0.469 0.53,0.947 0.688,1.5 0.154,0.552 0.027,0.938 0.027,0.938 l -2.562,1.781 c 0,0 -0.256,-0.104 -0.479,-0.355 -0.146,-0.164 -0.478,-0.443 -0.646,-0.612 -0.345,-0.345 -0.562,-0.419 -0.938,-0.419 -0.392,0 -0.619,0.005 -0.994,0.273 -0.422,0.303 -2.049,-1.418 -2.049,-1.418 l 3.604,-2.438 1.604,-1.958 c 0.007,0 0.662,0.03 0.528,0.521 z"
         id="path12"
         clip-path="url(#clipPath857)"
         inkscape:export-xdpi="418.58658"
         inkscape:export-ydpi="418.58658"
         inkscape:connector-curvature="0"
         style="fill:#cc7720" /><path
         enable-background="new    "
         d="m 22.82,23.501 c -0.307,-0.62 -1.319,-1.403 -1.914,-1.403 -0.594,0 -2.905,0.438 -3.905,0.438 -1,0 -3.438,-0.5 -4.22,-0.5 -0.836,0 -1.688,0.125 -2.28,0.312 -0.536,0.168 -1.083,0.375 -1.708,1.312 -0.159,0.239 -0.266,0.396 -0.335,0.51 0.165,-0.163 0.404,-0.372 0.543,-0.51 0.344,-0.345 0.562,-0.419 0.937,-0.419 0.393,0 0.619,0.005 0.994,0.273 h 10e-4 c 1.445,0.98 3.189,1.555 5.068,1.555 1.879,0 3.623,-0.573 5.067,-1.555 v 0 c 0.375,-0.27 0.604,-0.273 0.994,-0.273 0.307,0 0.508,0.058 0.758,0.26 z"
         id="path14"
         clip-path="url(#clipPath853)"
         inkscape:export-xdpi="418.58658"
         inkscape:export-ydpi="418.58658"
         inkscape:connector-curvature="0"
         style="opacity:0.1" /><path
         enable-background="new    "
         d="m 24.408,19.807 c 0.402,0.188 1.703,0.916 2.189,1.928 -0.146,-0.479 -0.326,-0.906 -0.633,-1.323 -0.426,-0.58 -0.719,-0.781 -0.938,-1.125 -0.207,-0.327 -0.389,-0.558 -0.286,-1.003 0.184,-0.721 0.293,-1.471 0.293,-2.247 0,-1.62 -0.435,-3.136 -1.181,-4.451 0.062,0.322 0.103,0.642 0.103,0.951 0,0.958 -0.164,2.433 -0.274,3.321 -0.101,0.783 -0.494,1.471 -0.494,2.408 10e-4,0.78 0.979,1.429 1.221,1.541 z"
         id="path16"
         clip-path="url(#clipPath849)"
         inkscape:export-xdpi="418.58658"
         inkscape:export-ydpi="418.58658"
         inkscape:connector-curvature="0"
         style="opacity:0.1" /><path
         enable-background="new    "
         d="m 13.875,8.42 c -0.613,-0.011 -1.116,0.253 -1.121,0.587 -0.002,0.144 0.102,0.275 0.26,0.383 0.479,0.061 0.961,0.107 1.448,0.14 C 14.764,9.426 14.975,9.255 14.979,9.045 14.982,8.709 14.49,8.43 13.875,8.42 Z"
         id="path18"
         clip-path="url(#clipPath845)"
         inkscape:export-xdpi="418.58658"
         inkscape:export-ydpi="418.58658"
         inkscape:connector-curvature="0"
         style="opacity:0.55;fill:#ffffff" /></g></g><text
     xml:space="preserve"
     style="font-style:normal;font-weight:normal;font-size:17.33333397px;line-height:1.25;font-family:sans-serif;letter-spacing:0px;word-spacing:0px;fill:#000000;fill-opacity:1;stroke:none"
     x="11.409587"
     y="15.748529"
     id="text842"><tspan
       sodipodi:role="line"
       id="tspan840"
       x="11.409587"
       y="31.084467"
       style="font-size:5.33333349px" /></text>
<text
     xml:space="preserve"
     style="font-style:normal;font-weight:normal;font-size:12.47796917px;line-height:1.25;font-family:sans-serif;letter-spacing:0px;word-spacing:0px;fill:#000000;fill-opacity:1;stroke:none;stroke-width:0.71988279"
     x="11.422852"
     y="11.970496"
     id="text846"
     inkscape:export-xdpi="418"
     inkscape:export-ydpi="418"><tspan
       sodipodi:role="line"
       id="tspan844"
       x="11.422852"
       y="11.970496"
       style="font-size:3.83937502px;stroke-width:0.71988279">104</tspan></text>
<text
     xml:space="preserve"
     style="font-style:normal;font-weight:normal;font-size:12.47796917px;line-height:1.25;font-family:sans-serif;letter-spacing:0px;word-spacing:0px;fill:#000000;fill-opacity:1;stroke:none;stroke-width:0.71988279"
     x="12.745247"
     y="7.4639277"
     id="text846-3"
     inkscape:export-xdpi="418"
     inkscape:export-ydpi="418"><tspan
       sodipodi:role="line"
       id="tspan844-6"
       x="12.745247"
       y="7.4639277"
       style="font-size:3.83937502px;stroke-width:0.71988279">2E</tspan></text>
<text
     xml:space="preserve"
     style="font-style:normal;font-weight:normal;font-size:12.47796917px;line-height:1.25;font-family:sans-serif;letter-spacing:0px;word-spacing:0px;fill:#000000;fill-opacity:1;stroke:none;stroke-width:0.71988279"
     x="13.806767"
     y="16.208321"
     id="text846-3-7"
     inkscape:export-xdpi="418"
     inkscape:export-ydpi="418"><tspan
       sodipodi:role="line"
       id="tspan844-6-5"
       x="13.806767"
       y="16.208321"
       style="font-size:3.83937502px;stroke-width:0.71988279">K</tspan></text>
<rect
     style="fill:none;fill-opacity:0.15686275;stroke:#48bf00;stroke-width:0.46799999;stroke-miterlimit:4;stroke-dasharray:none;stroke-opacity:1"
     id="rect884"
     width="5.9911871"
     height="3.7343712"
     x="12.212615"
     y="4.2112117"
     inkscape:export-xdpi="418"
     inkscape:export-ydpi="418" /><rect
     style="fill:none;fill-opacity:0.15686275;stroke:#97006f;stroke-width:0.48699999;stroke-miterlimit:4;stroke-dasharray:none;stroke-opacity:1"
     id="rect884-3"
     width="7.4479184"
     height="3.7236531"
     x="11.442007"
     y="8.6729498"
     inkscape:export-xdpi="418"
     inkscape:export-ydpi="418" /><rect
     style="fill:none;fill-opacity:0.15686275;stroke:#00a3be;stroke-width:0.43747023;stroke-miterlimit:4;stroke-dasharray:none;stroke-opacity:1"
     id="rect884-5"
     width="3.5930793"
     height="3.5868478"
     x="13.387593"
     y="12.972733"
     inkscape:export-xdpi="418"
     inkscape:export-ydpi="418" /><text
     xml:space="preserve"
     style="font-style:normal;font-weight:normal;font-size:7.83829117px;line-height:1.25;font-family:sans-serif;letter-spacing:0px;word-spacing:0px;fill:#48bf00;fill-opacity:1;stroke:none;stroke-width:0.45220909;"
     x="2.2767844"
     y="23.909643"
     id="text909"
     inkscape:export-xdpi="418"
     inkscape:export-ydpi="418"><tspan
       sodipodi:role="line"
       id="tspan907"
       x="2.2767844"
       y="23.909643"
       style="font-size:2.41178179px;fill:#48bf00;fill-opacity:1;stroke-width:0.45220909;">VOLTS</tspan></text>
<text
     xml:space="preserve"
     style="font-style:normal;font-weight:normal;font-size:7.83829117px;line-height:1.25;font-family:sans-serif;letter-spacing:0px;word-spacing:0px;fill:#00a3be;fill-opacity:1;stroke:none;stroke-width:0.45220909;"
     x="8.4497585"
     y="26.73493"
     id="text909-6"
     inkscape:export-xdpi="418"
     inkscape:export-ydpi="418"><tspan
       sodipodi:role="line"
       id="tspan907-2"
       x="8.4497585"
       y="26.73493"
       style="font-size:2.41178179px;fill:#00a3be;fill-opacity:1;stroke-width:0.45220909;">TOLERANCE</tspan></text>
<text
     xml:space="preserve"
     style="font-style:normal;font-weight:normal;font-size:7.83829117px;line-height:1.25;font-family:sans-serif;letter-spacing:0px;word-spacing:0px;fill:#97006f;fill-opacity:1;stroke:none;stroke-width:0.45220909;"
     x="11.410769"
     y="23.818115"
     id="text909-9"
     inkscape:export-xdpi="418"
     inkscape:export-ydpi="418"><tspan
       sodipodi:role="line"
       id="tspan907-1"
       x="11.410769"
       y="23.818115"
       style="font-size:2.41178179px;fill:#97006f;fill-opacity:1;stroke-width:0.45220909;">CAPACITANCE</tspan></text>
</svg>