<?xml version="1.0" encoding="UTF-8" standalone="no"?>
<!-- Created with Inkscape (http://www.inkscape.org/) -->

<svg
   version="1.1"
   id="svg2"
   width="64"
   height="80"
   viewBox="0 0 64 80"
   sodipodi:docname="pytronics.png.svg"
   inkscape:version="1.1 (c4e8f9ed74, 2021-05-24)"
   xmlns:inkscape="http://www.inkscape.org/namespaces/inkscape"
   xmlns:sodipodi="http://sodipodi.sourceforge.net/DTD/sodipodi-0.dtd"
   xmlns="http://www.w3.org/2000/svg"
   xmlns:svg="http://www.w3.org/2000/svg">
  <defs
     id="defs6" />
  <sodipodi:namedview
     id="namedview4"
     pagecolor="#ffffff"
     bordercolor="#666666"
     borderopacity="1.0"
     inkscape:pageshadow="2"
     inkscape:pageopacity="0.0"
     inkscape:pagecheckerboard="0"
     showgrid="false"
     inkscape:zoom="4.375"
     inkscape:cx="-40.8"
     inkscape:cy="36"
     inkscape:window-width="1440"
     inkscape:window-height="871"
     inkscape:window-x="0"
     inkscape:window-y="0"
     inkscape:window-maximized="1"
     inkscape:current-layer="g8" />
  <g
     inkscape:groupmode="layer"
     inkscape:label="Image"
     id="g8">
    <g
       id="g854"
       inkscape:export-filename="/home/ronal/git/GNU-Pytronic/g854.png"
       inkscape:export-xdpi="96"
       inkscape:export-ydpi="96">
      <path
         style="fill:#000000;stroke-width:1.33333"
         d="m 24.642137,64.882189 c -6.204731,-2.700447 -8.504403,-6.877584 -8.504403,-15.447447 0,-4.090162 0.72,-8.156658 1.6,-9.036658 1.055335,-1.055335 6.720282,-1.6 16.641264,-1.6 16.966359,0 15.996451,0.695256 16.740446,-12 0.325757,-5.558612 0.641045,-6.032936 4.285872,-6.447718 2.617425,-0.297862 4.514102,0.345282 5.666666,1.921507 2.177254,2.977571 2.271163,15.454133 0.132419,17.592877 -1.077777,1.077778 -7.170371,1.6 -18.666667,1.6 -11.172965,0 -17.066666,0.4899 -17.066666,1.418627 0,0.780245 1.65,1.289764 3.666666,1.132267 7.560135,-0.590434 10.909292,0.211606 14.8977,3.567632 6.919808,5.822633 5.187892,13.423905 -3.885784,17.05447 -6.485524,2.594994 -9.980161,2.650079 -15.507513,0.244443 z m 12.082176,-8.356195 c 1.098284,-2.862082 -1.788081,-5.93774 -5.122951,-5.45892 -3.527653,0.5065 -4.456728,5.040612 -1.479016,7.217968 2.648186,1.936402 5.472678,1.183835 6.601967,-1.759048 z M 3.1251304,53.482842 c -2.00971,-3.218057 -2.16862401,-12.565269 -0.273817,-16.105746 1.259696,-2.353764 2.948249,-2.579012 19.3333326,-2.579012 10.009158,0 17.953088,-0.541534 17.953088,-1.223852 0,-0.673119 -3.350597,-1.193744 -7.44577,-1.156946 -8.432986,0.07578 -13.706671,-2.845152 -15.812562,-8.758082 -2.882872,-8.09454 9.868728,-16.2313183 20.462768,-13.057267 8.455435,2.53331 10.795564,5.896293 10.795564,15.514228 0,4.560011 -0.704628,8.853213 -1.6,9.748585 -1.043186,1.043187 -6.518518,1.6 -15.733333,1.6 -9.214815,0 -14.690147,0.556814 -15.733333,1.6 -0.88,0.88 -1.6,5.08 -1.6,9.333334 v 7.733333 H 9.1251304 c -2.892033,0 -4.899293,-0.886063 -6,-2.648575 z M 35.871068,23.86475 c 2.108181,-2.108181 2.01944,-3.123417 -0.492595,-5.635452 -1.579576,-1.579576 -2.723651,-1.754862 -4.666667,-0.714993 -2.515518,1.346265 -3.456674,5.290065 -1.685182,7.061556 1.415105,1.415107 5.101197,1.032136 6.844444,-0.711111 z"
         id="path12" />
      <path
         style="fill:#ff7f2a;stroke-width:1.33333"
         d="m 24.642137,64.882189 c -6.204731,-2.700447 -8.504403,-6.877584 -8.504403,-15.447447 0,-4.090162 0.72,-8.156658 1.6,-9.036658 1.055335,-1.055335 6.720282,-1.6 16.641264,-1.6 16.966359,0 15.996451,0.695256 16.740446,-12 0.325757,-5.558612 0.641045,-6.032936 4.285872,-6.447718 2.617425,-0.297862 4.514102,0.345282 5.666666,1.921507 2.177254,2.977571 2.271163,15.454133 0.132419,17.592877 -1.077777,1.077778 -7.170371,1.6 -18.666667,1.6 -11.172965,0 -17.066666,0.4899 -17.066666,1.418627 0,0.780245 1.65,1.289764 3.666666,1.132267 7.560135,-0.590434 10.909292,0.211606 14.8977,3.567632 6.919808,5.822633 5.187892,13.423905 -3.885784,17.05447 -6.485524,2.594994 -9.980161,2.650079 -15.507513,0.244443 z m 12.082176,-8.356195 c 1.098284,-2.862082 -1.788081,-5.93774 -5.122951,-5.45892 -3.527653,0.5065 -4.456728,5.040612 -1.479016,7.217968 2.648186,1.936402 5.472678,1.183835 6.601967,-1.759048 z"
         id="path12-3"
         sodipodi:nodetypes="ssssssssssssssssss" />
    </g>
  </g>
</svg>
